<svg id="visual" viewBox="0 0 1920 200" width="1920" height="200" xmlns="http://www.w3.org/2000/svg" xmlns:xlink="http://www.w3.org/1999/xlink" version="1.1"><rect x="0" y="0" width="1920" height="200" fill="#543229"></rect><path d="M0 181L26.7 174.2C53.3 167.3 106.7 153.7 160 155.2C213.3 156.7 266.7 173.3 320 171.5C373.3 169.7 426.7 149.3 480 141.5C533.3 133.7 586.7 138.3 640 130.5C693.3 122.7 746.7 102.3 800 109.5C853.3 116.7 906.7 151.3 960 163C1013.3 174.7 1066.7 163.3 1120 150.3C1173.3 137.3 1226.7 122.7 1280 123.2C1333.3 123.7 1386.7 139.3 1440 143.8C1493.3 148.3 1546.7 141.7 1600 130.7C1653.3 119.7 1706.7 104.3 1760 112.3C1813.3 120.3 1866.7 151.7 1893.3 167.3L1920 183L1920 201L1893.3 201C1866.7 201 1813.3 201 1760 201C1706.7 201 1653.3 201 1600 201C1546.7 201 1493.3 201 1440 201C1386.7 201 1333.3 201 1280 201C1226.7 201 1173.3 201 1120 201C1066.7 201 1013.3 201 960 201C906.7 201 853.3 201 800 201C746.7 201 693.3 201 640 201C586.7 201 533.3 201 480 201C426.7 201 373.3 201 320 201C266.7 201 213.3 201 160 201C106.7 201 53.3 201 26.7 201L0 201Z" fill="#edcd2c" stroke-linecap="round" stroke-linejoin="miter"></path></svg>